<svg xmlns="http://www.w3.org/2000/svg" viewBox="0 0 720 430" role="img" aria-labelledby="title desc">
  <title id="title">Ultrasonic sensor return time vs. distance</title>
  <desc id="desc">Scatter plot of ultrasonic sensor readings against distance, with close-range outliers and the linear fit y equals 54.539 x.</desc>
  <rect width="720" height="430" fill="#ffffff"/>

  <g stroke="#111111" stroke-width="1" opacity="0.08">
    <line x1="94.1" y1="30" x2="94.1" y2="376"/>
    <line x1="124.2" y1="30" x2="124.2" y2="376"/>
    <line x1="154.3" y1="30" x2="154.3" y2="376"/>
    <line x1="184.4" y1="30" x2="184.4" y2="376"/>
    <line x1="244.6" y1="30" x2="244.6" y2="376"/>
    <line x1="274.7" y1="30" x2="274.7" y2="376"/>
    <line x1="304.8" y1="30" x2="304.8" y2="376"/>
    <line x1="334.9" y1="30" x2="334.9" y2="376"/>
    <line x1="395.0" y1="30" x2="395.0" y2="376"/>
    <line x1="425.1" y1="30" x2="425.1" y2="376"/>
    <line x1="455.2" y1="30" x2="455.2" y2="376"/>
    <line x1="485.3" y1="30" x2="485.3" y2="376"/>
    <line x1="545.5" y1="30" x2="545.5" y2="376"/>
    <line x1="575.6" y1="30" x2="575.6" y2="376"/>
    <line x1="605.7" y1="30" x2="605.7" y2="376"/>
    <line x1="635.8" y1="30" x2="635.8" y2="376"/>
    <line x1="64" y1="347.2" x2="696" y2="347.2"/>
    <line x1="64" y1="289.5" x2="696" y2="289.5"/>
    <line x1="64" y1="231.8" x2="696" y2="231.8"/>
    <line x1="64" y1="174.2" x2="696" y2="174.2"/>
    <line x1="64" y1="116.5" x2="696" y2="116.5"/>
    <line x1="64" y1="58.8" x2="696" y2="58.8"/>
  </g>

  <g stroke="#111111" stroke-width="1" opacity="0.22">
    <line x1="64" y1="30" x2="64" y2="376"/>
    <line x1="214.5" y1="30" x2="214.5" y2="376"/>
    <line x1="365.0" y1="30" x2="365.0" y2="376"/>
    <line x1="515.4" y1="30" x2="515.4" y2="376"/>
    <line x1="665.9" y1="30" x2="665.9" y2="376"/>
    <line x1="64" y1="376.0" x2="696" y2="376.0"/>
    <line x1="64" y1="318.3" x2="696" y2="318.3"/>
    <line x1="64" y1="260.7" x2="696" y2="260.7"/>
    <line x1="64" y1="203.0" x2="696" y2="203.0"/>
    <line x1="64" y1="145.3" x2="696" y2="145.3"/>
    <line x1="64" y1="87.7" x2="696" y2="87.7"/>
    <line x1="64" y1="30.0" x2="696" y2="30.0"/>
  </g>

  <g stroke="#111111" stroke-width="1.4">
    <line x1="64" y1="376" x2="696" y2="376"/>
    <line x1="64" y1="376" x2="64" y2="30"/>
  </g>

  <line x1="64.0" y1="376.0" x2="696.0" y2="45.8" stroke="#111111" stroke-width="3"/>

  <g font-family="Georgia, serif" font-size="13" fill="#111111">
    <text x="360" y="415" text-anchor="middle">Distance from sensor (cm)</text>
    <text x="18" y="214" text-anchor="middle" transform="rotate(-90 18 214)">Return time / raw reading</text>
  </g>

  <g font-family="monospace" font-size="11" fill="#555555">
    <text x="64" y="394" text-anchor="middle">0</text>
    <text x="214.5" y="394" text-anchor="middle">5</text>
    <text x="365.0" y="394" text-anchor="middle">10</text>
    <text x="515.4" y="394" text-anchor="middle">15</text>
    <text x="665.9" y="394" text-anchor="middle">20</text>
    <text x="54" y="380" text-anchor="end">0</text>
    <text x="54" y="322.3" text-anchor="end">200</text>
    <text x="54" y="264.7" text-anchor="end">400</text>
    <text x="54" y="207.0" text-anchor="end">600</text>
    <text x="54" y="149.3" text-anchor="end">800</text>
    <text x="54" y="91.7" text-anchor="end">1000</text>
    <text x="54" y="34.0" text-anchor="end">1200</text>
  </g>

  <g fill="#c05a43" stroke="#ffffff" stroke-width="1.5">
    <circle cx="94.1" cy="311.4" r="5"/>
    <circle cx="124.2" cy="298.4" r="5"/>
    <circle cx="154.3" cy="313.4" r="5"/>
    <circle cx="184.4" cy="311.4" r="5"/>
    <circle cx="214.5" cy="303.6" r="5"/>
  </g>

  <g fill="#2f8f50" stroke="#ffffff" stroke-width="1.5">
    <circle cx="244.6" cy="287.5" r="5"/>
    <circle cx="274.7" cy="276.5" r="5"/>
    <circle cx="304.8" cy="253.5" r="5"/>
    <circle cx="334.9" cy="237.3" r="5"/>
    <circle cx="365.0" cy="227.2" r="5"/>
    <circle cx="395.0" cy="212.2" r="5"/>
    <circle cx="425.1" cy="187.1" r="5"/>
    <circle cx="455.2" cy="176.2" r="5"/>
    <circle cx="485.3" cy="161.2" r="5"/>
    <circle cx="515.4" cy="138.1" r="5"/>
    <circle cx="545.5" cy="120.0" r="5"/>
    <circle cx="575.6" cy="103.8" r="5"/>
    <circle cx="665.9" cy="54.8" r="5"/>
  </g>

  <g font-family="monospace" font-size="13">
    <rect x="480" y="306" width="188" height="52" rx="4" fill="#ffffff" stroke="#dddddd"/>
    <text x="494" y="328" fill="#111111">fit: y = 54.539x</text>
    <text x="494" y="348" fill="#111111">R^2 = 0.953</text>
    <circle cx="88" cy="52" r="5" fill="#c05a43"/>
    <text x="102" y="56" fill="#555555">close-range outliers</text>
    <circle cx="88" cy="74" r="5" fill="#2f8f50"/>
    <text x="102" y="78" fill="#555555">measured data</text>
  </g>
</svg>
