<svg xmlns="http://www.w3.org/2000/svg" width="1600" height="1000" viewBox="0 0 1600 1000" preserveAspectRatio="xMidYMid meet" role="img" aria-labelledby="title desc">
  <title id="title">World map outline reference</title>
  <desc id="desc">Black line-art world map outline prepared as a reference image for CNC week.</desc>
  <rect width="1600" height="1000" fill="#ffffff"/>
  <g fill="none" stroke="#050505" stroke-width="18" stroke-linecap="round" stroke-linejoin="round">
    <path d="M92 291c30-20 59-39 96-38 37 1 76 27 113 21 30-4 50-23 82-14 21 6 44 25 64 14 15-8-11-31-3-47 9-18 40-21 58-4 18 16 32 35 57 30 18-4 15-40 36-44 25-5 39 38 64 29 22-8 30-40 60-45 32-6 65 4 92-12-37-11-80-12-116 5-28 13-36 44-65 50-31 6-44-37-71-35-26 3-21 45-49 45-30 0-42-49-75-49-19 0-41 11-55 25-10 11 15 29 0 40-17 11-43-16-70-11-42 8-71 29-117 16-38-11-76-13-93 19-21 2-36 11-43 33-26 13-39 35-65 51"/>
    <path d="M220 313c-41-7-84 3-123 32-15 11-29 22-46 30 2 25 29 7 47 0 31-13 60-43 92-41 19 1 38 6 55 11-15 20-4 36 3 53 8 20-22 36-25 57-3 22 15 34 18 55 5 38-7 91 27 111 31 19 70 23 83 61 19 51 66 74 113 76 44 2 74-28 114-17 27 7 31 42 57 48 27 6 44 25 72 25 16 0 27 18 35 32 20 35 65 35 89 66 9 13 7 34-5 48-22 23-36 50-35 83 2 44-44 51-50 89-5 29-36 26-49 50-14 25-7 58 4 83 8 20 19 42 35 55 17 14 39 11 21-14-26-36-23-82-23-123 0-32-23-61-13-95 9-31 2-60-13-88-22-38-58-63-72-107-9-27 13-55 1-81-18-39-65-53-92-84-29-34-60-67-103-75-22-4-37-28-61-21-33 10-64 9-93-11-32-22-39-52-65-77-20-18-55-8-77 7-6-27-4-55 9-80 14-28 44-32 72-30 24 2 37 23 52 39 22 23 56 23 84 38 20 10 42 25 65 20-13-31-66-25-88-48-25-26-76 14-96-23 28-35 65-56 79-99 11-32 53-21 75-41 31-27 21-71 62-84 24-8 53 5 74-11 24-18 8-51-14-68 36-3 70-20 105-8 32 11 60 18 93 17 23 0 17 31 9 45-15 26 4 55 32 61 30 7 57-7 75-31 13-18-11-49 11-63 31-20 74-14 94-48"/>
    <path d="M688 293c24-47 57-83 111-83 25 0 49 3 72-8 15-8 26-24 46-23 19 1 34 16 53 18 42 5 72-25 115-27 45-3 84-24 129-19 19 2 32 19 51 20 22 2 42-13 65-8 31 7 56 29 89 28 36-2 69-10 104 4 19 8 38 9 58 6 28-5 56-18 85-8 32 11 51 43 87 45 23 1 48-4 67 13 15 14 47 4 61 21-21 22-54 22-83 17-24-5-39-29-66-27-29 2-19 34-42 44-27 11-57-19-85-8-26 10-3 40 22 47 27 7 61 16 72 43 8 21-11 35-9 55 4 34-40 46-41 78-1 35-31 44-44 72-14 29 16 49 9 78-8 30-43 24-62 45-27 29-66 10-88 44-13 21 22 48 43 65 28 22 62 31 95 37 31 6 62 24 84 48 20 22 30 51 15 78-15 29-46 46-74 59-31 14-62 29-92 47-21 13-45 1-67 9-34 12-36 51-65 68-26 15-61 11-88 25-26 14-54 21-84 19-15-1-33 11-46 1 3-29 27-54 27-84 0-25 9-46 26-64 31-32 74-24 113-43 37-18 61-56 99-73 18-8 41 9 57-5 16-15 0-43 21-54 25-13 40 24 63 24 25 0 29-31 43-47 16-18 52-14 54-43 3-33 16-60 24-91 8-30-12-47-41-42-33 5-53 38-87 40-45 3-55-52-99-54-36-2-58-31-94-35-28-4-57 0-81-19-30-23 13-54 48-36 30 16 63 21 97 20-7-33-42-39-69-51-36-16-70-23-104-3-30 18-62 8-92-4-29-12-61-14-91-28-25-11-44-33-73-33-23 0-37 22-57 30-32 12-63-3-91-15-39-18-75-48-119-42-36 5-50 41-84 49-34 7-66 28-101 21-26-6-50-24-78-18-18 4-18 33-37 37-20 4-38-13-38-34 0-37 29-66 48-94z"/>
    <path d="M739 376c22-8 43-21 66-19 35 3 56 37 91 38 26 1 48 1 72 14 14 8 35 9 43-8-7-22-42-18-44-41-3-25 35-29 56-19 21 10 34 33 57 37 16 3 32-13 46-3-6 25-39 20-58 34 30 15 60 32 64 70 3 29 32 47 36 76 4 27-25 48-27 75-4 47-55 72-61 118-3 29 31 45 25 73-6 25-41 25-51 48-13 29-10 65-35 88-33 31-47 79-37 123 8 35 21 69 18 105-1 18-37 22-52 15-20-10-13-42-16-62-7-43-24-83-26-127-2-37-29-66-59-86-34-23-34-72-67-96-26-19-61-10-84-37-18-21-47-32-65-55-18-24 2-58-12-85-16-30 4-61 6-91 2-30 37-41 44-69 6-23 14-43 35-57z"/>
    <path d="M795 284c18-33 41-60 73-77 29-16 71-12 99-6 26 6 33 37 62 33 32-5 56-28 89-24 19 3 34 16 54 14 35-4 62-30 96-36 27-5 55-10 77-1 23 10 31 36 59 34 23-1 37-13 62-5 33 12 57 29 94 22 34-6 67-13 100-7"/>
    <path d="M1285 302c25 8 50 15 74 7 31-11 32-53 58-66 22-11 31 16 29 36-2 26-35 24-47 43 23 9 46 18 51 47 4 28-22 36-43 47 20 13 42 27 42 54 1 30-38 29-54 48-13 17-12 42-33 53-20 11-42-4-61 8-15 10-12 35-32 40-30 8-39-32-63-43-19-8-38 8-37 29 1 32 32 52 51 76"/>
    <path d="M1262 644c28 18 52 43 88 43 27 0 45-22 71-20 17 2 24 25 39 29 20 6 38-13 58-8 25 7 45 28 71 30 24 2 47-12 68 3 29 21 37 66 23 99-17 42-58 67-97 88-26 14-55 23-84 21-25-2-45-20-72-16-36 4-63 28-99 32-32 4-70 1-103 1 3-43 27-79 37-121 7-29 0-58 0-87 0-31 6-61 0-94z"/>
    <path d="M1375 534c28-4 47 19 71 27 20 6 37-14 55-6 15 7 13 30 1 41-18 16-40 17-62 17-29 0-55-8-81-20"/>
    <path d="M1419 664c13 30 37 52 63 70 27 18 58 9 87 18 36 11 61 41 83 70 17 23 2 54-25 57-30 4-58-24-87-15-29 10-48 39-80 43"/>
    <path d="M1387 847c17 8 35 19 39 39 4 19-17 30-34 26-20-4-29-24-18-41 4-8 8-16 13-24z"/>
    <path d="M1518 896c30-8 56-27 75-51 13-16 34-10 43 9 9 19-12 34-25 45-28 23-52 57-92 60-19 2-40-5-48-23 13-23 28-34 47-40z"/>
  </g>
</svg>
